<svg xmlns="http://www.w3.org/2000/svg" width="50.564" height="50.564" viewBox="0 0 50.564 50.564">
    <defs>
        <linearGradient id="buyyni65ga" x1=".5" x2=".5" y2="1" gradientUnits="objectBoundingBox">
            <stop offset="0" stop-color="#38b5c9"/>
            <stop offset="1" stop-color="#d118b8"/>
        </linearGradient>
    </defs>
    <path fill="url(#buyyni65ga)" d="M45.1 0H5.465A5.472 5.472 0 0 0 0 5.465V45.1a5.472 5.472 0 0 0 5.465 5.465H45.1a5.472 5.472 0 0 0 5.464-5.465V5.465A5.472 5.472 0 0 0 45.1 0zM9.4 9.736c10.506-7.63 21.586-7.548 31.947.135a1.483 1.483 0 0 1-.884 2.671c-1.68 0-13.126-12.172-29.323-.409a1.481 1.481 0 0 1-1.74-2.4zm13.807 38.1a1.481 1.481 0 0 1-2.061-.374c-2.086-3.022-6.826-6.398-6.826-12.699 0-6.48 4.917-11.752 10.962-11.752s10.962 5.272 10.962 11.752v1.58a1.481 1.481 0 0 1-2.963 0v-1.58c0-4.846-3.589-8.789-8-8.789s-8 3.943-8 8.789c.002 7.143 9.092 10.88 5.927 13.068zm18.41-7.666c-3.547 7.091-14.658 4.851-14.658-3.823 0-6.387-4.372-4.238-3.4-.359a1.481 1.481 0 0 1-2.874.719c-2.018-8.069 9.239-11.342 9.239-.359a4.78 4.78 0 0 0 3.71 4.936c6.857 1.618 8.892-9.7 2.053-16.978C26.231 14.224 10.962 22 10.962 33.973c0 3.614.548 5.663 2.095 7.831a1.481 1.481 0 0 1-2.412 1.72C8.45 40.446 8 37.481 8 33.973A17.569 17.569 0 0 1 25.282 16.69c12.784 0 20.908 14.332 16.337 23.476zm.99-18.338a1.48 1.48 0 0 1-2.021-.551c-2.949-5.16-10.087-7.944-15.306-7.944-5.33 0-12.507 3.753-15.359 8.031a1.481 1.481 0 0 1-2.463-1.648c3.437-5.157 11.527-9.35 17.824-9.35 10.975 0 20.772 9.488 17.326 11.458z"/>
</svg>
