<svg xmlns="http://www.w3.org/2000/svg" width="211.73" height="199.713" viewBox="0 0 211.73 199.713">
    <g id="location" transform="translate(-.44 -19.992)">
        <path id="Path_288" fill="#07e877" d="M194.212 96.431a10.219 10.219 0 1 1 10.219-10.219 10.231 10.231 0 0 1-10.219 10.219z" data-name="Path 288" transform="translate(-108.676 -32.156)"/>
        <path id="Path_289" fill="#4c8b80" d="M211.992 197.11L195.386 87.666c-1.448-9.666-9.931-13.372-19.707-13.372l-60.488.1c5.566-10.53 5.805-26.227-.016-36.782a33.529 33.529 0 0 0-28.551-17.604c-.718-.021-1.455-.021-2.178 0A33.528 33.528 0 0 0 55.9 37.615c-5.818 10.551-6.255 26.243-.689 36.782L36.3 74.3c-9.781 0-17.59 3.7-19.038 13.366L.657 197.112A19.57 19.57 0 0 0 5.186 212.8c3.725 4.325 5.67 6.907 11.377 6.907h178.823c5.707 0 7.749-.459 11.473-4.783s5.979-12.169 5.133-17.814zM67.829 44.2a19.77 19.77 0 0 1 17.016-10.572c.228-.007.46-.01.692-.01s.464 0 .689.01A19.771 19.771 0 0 1 103.244 44.2a21.457 21.457 0 0 1-.277 21.456L85.537 95 68.112 65.66a21.456 21.456 0 0 1-.283-21.46zM199.9 205.269a5.893 5.893 0 0 1-4.517 2.071H71.96a13.776 13.776 0 0 1 7.384-11.059 6.813 6.813 0 1 0-6.555-11.945 26.934 26.934 0 0 0-13.755 17.975 29.82 29.82 0 0 0-.7 5.029H16.563a5.961 5.961 0 0 1-5.9-6.845l16.61-110.706a5.924 5.924 0 0 1 5.9-5.075h30.408L76.8 106.97a10.14 10.14 0 0 0 17.468.009l13.225-22.265h71.288a5.924 5.924 0 0 1 5.9 5.077l16.606 110.705a5.9 5.9 0 0 1-1.387 4.773z" data-name="Path 289"/>
        <path id="Path_290" fill="#8d3c82" d="M264.958 220.34a6.812 6.812 0 1 0-4.309 12.926c.07.023 7.051 2.519 9.317 9.317a6.813 6.813 0 0 0 12.926-4.309c-4.433-13.298-17.385-17.751-17.934-17.934z" data-name="Path 290" transform="translate(-150.016 -114.839)"/>
        <path id="Path_291" fill="#9a003f" d="M249.315 321.061a6.813 6.813 0 0 0-8.692 4.157c-3.845 10.894-17.024 15.573-17.3 15.67a6.813 6.813 0 0 0 4.332 12.918c.8-.267 19.708-6.745 25.817-24.053a6.814 6.814 0 0 0-4.157-8.692z" data-name="Path 291" transform="translate(-128.597 -172.652)"/>
    </g>
</svg>
