<svg xmlns="http://www.w3.org/2000/svg" id="menu_5_" width="180.62" height="180.621" data-name="menu (5)" viewBox="0 0 180.62 180.621">
    <g id="Group_297" data-name="Group 297">
        <g id="Group_296" data-name="Group 296">
            <path id="Path_89" fill="#4c8b80" d="M76.416 0H6.947A6.947 6.947 0 0 0 0 6.947v69.469a6.947 6.947 0 0 0 6.947 6.947h69.469a6.947 6.947 0 0 0 6.947-6.947V6.947A6.947 6.947 0 0 0 76.416 0z" data-name="Path 89"/>
            <path id="Path_90" fill="#ee0061" d="M222.7 0h-69.468a6.947 6.947 0 0 0-6.947 6.947v69.469a6.947 6.947 0 0 0 6.947 6.947H222.7a6.947 6.947 0 0 0 6.947-6.947V6.947A6.947 6.947 0 0 0 222.7 0z" data-name="Path 90" transform="translate(-49.028)"/>
            <path id="Path_91" fill="#8d3c82" d="M76.416 146.286H6.947A6.947 6.947 0 0 0 0 153.233V222.7a6.947 6.947 0 0 0 6.947 6.947h69.469a6.947 6.947 0 0 0 6.947-6.947v-69.467a6.947 6.947 0 0 0-6.947-6.947z" data-name="Path 91" transform="translate(0 -49.029)"/>
        </g>
    </g>
</svg>
