<svg xmlns="http://www.w3.org/2000/svg" width="76.811" height="86.175" viewBox="0 0 76.811 86.175">
    <g id="surface1" transform="translate(-.184)">
        <path id="Path_489" fill="#4c8b80" d="M75.893 40.884l-3.429-1.475v-2.345A33.761 33.761 0 0 0 49.845 5.082v-3.3A1.778 1.778 0 0 0 48.069 0H29.057a1.778 1.778 0 0 0-1.777 1.777V5.1A33.761 33.761 0 0 0 4.661 37.082v2.363l-3.393 1.439a1.775 1.775 0 0 0-1.084 1.635v9.328a1.778 1.778 0 0 0 1.777 1.777h2.31v3.554a1.777 1.777 0 0 0 1.776 1.777h6.379a26.88 26.88 0 0 0 2.647 6.361l-4.513 4.513a1.775 1.775 0 0 0 0 2.505l7.551 7.551a1.775 1.775 0 0 0 2.505 0l4.513-4.513a26.841 26.841 0 0 0 6.343 2.647V84.4a1.778 1.778 0 0 0 1.777 1.776h10.66a1.777 1.777 0 0 0 1.779-1.776v-6.38a26.817 26.817 0 0 0 6.361-2.647l4.513 4.513a1.775 1.775 0 0 0 2.505 0l7.551-7.551a1.776 1.776 0 0 0 0-2.505L62.1 65.315a26.877 26.877 0 0 0 2.648-6.361h6.378a1.778 1.778 0 0 0 1.777-1.777v-3.553h2.31a1.777 1.777 0 0 0 1.776-1.777v-9.328a1.777 1.777 0 0 0-1.096-1.635zM30.8 3.572h15.492v29.69H30.834zM69.372 55.4h-5.916a1.776 1.776 0 0 0-1.777 1.4 23.355 23.355 0 0 1-3.251 7.818 1.777 1.777 0 0 0 .231 2.221L62.9 71.09l-5.082 5.046-4.247-4.247a1.776 1.776 0 0 0-2.221-.231 23.367 23.367 0 0 1-7.818 3.251 1.777 1.777 0 0 0-1.4 1.777v5.988h-7.105v-6.041a1.776 1.776 0 0 0-1.4-1.776 23.289 23.289 0 0 1-7.822-3.257 1.778 1.778 0 0 0-2.221.231l-4.247 4.247-5.028-5.029 4.247-4.247a1.776 1.776 0 0 0 .231-2.221 23.379 23.379 0 0 1-3.3-7.783 1.777 1.777 0 0 0-1.777-1.4H7.789v-1.774h16.24a14.641 14.641 0 0 0 29.069 0h16.257zm-41.719-1.776h21.872a11.087 11.087 0 0 1-21.89 0zm45.806-3.554H3.72v-6.379l3.429-1.475a1.774 1.774 0 0 0 1.084-1.635v-3.553A30.2 30.2 0 0 1 27.28 8.866v26.173a1.777 1.777 0 0 0 1.777 1.777H48.1a1.778 1.778 0 0 0 1.777-1.777V8.866a30.205 30.205 0 0 1 19.065 28.2v3.554a1.773 1.773 0 0 0 1.084 1.634l3.429 1.475v6.341zm0 0" data-name="Path 489"/>
    </g>
</svg>
