<svg xmlns="http://www.w3.org/2000/svg" id="architecture-and-city" width="21.979" height="22.315" viewBox="0 0 21.979 22.315">
    <defs>
        <style>
            .cls-1{fill:#707070}
        </style>
    </defs>
    <path id="Path_249" d="M21.55 19.747a1.5 1.5 0 0 0-1-.456 1.131 1.131 0 0 0-1.111-1.321 1.19 1.19 0 0 0-1.224.839 1.347 1.347 0 0 0-.6.29V6.372h.049a1.291 1.291 0 0 0 .623-2.42l-.746-.412a.326.326 0 0 0-.315.571l.746.412a.638.638 0 0 1-.607 1.121L11.248 2.4a.542.542 0 0 0-.51 0L4.62 5.645a.638.638 0 0 1-.607-1.121l6.98-3.856 3.849 2.076a.326.326 0 1 0 .315-.571L11.256.068a.541.541 0 0 0-.525 0L3.7 3.954a1.291 1.291 0 0 0 .67 2.418v12.735a1.34 1.34 0 0 0-.609-.3 1.191 1.191 0 0 0-1.224-.839 1.131 1.131 0 0 0-1.111 1.321A1.513 1.513 0 0 0 0 20.844a1.536 1.536 0 0 0 1.537 1.471h18.9a1.514 1.514 0 0 0 1.253-2.4 1.321 1.321 0 0 0-.144-.171zm-15.987 1.64a.861.861 0 0 1-.635.276H1.537a.879.879 0 0 1-.885-.837.861.861 0 0 1 .854-.885l.139.006a.473.473 0 0 0 .465-.639l-.01-.017a.475.475 0 0 1-.04-.19.5.5 0 0 1 .5-.48.557.557 0 0 1 .606.463.475.475 0 0 0 .383.346.605.605 0 0 1 .51.316.476.476 0 0 0 .579.228.869.869 0 0 1 .927 1.413zm5.1.186H7.727v-5.967h2.936zm3.588 0h-2.936v-5.967h2.936zm1.551.09h-.9V15.59a.544.544 0 0 0 .416-.528v-.784a.544.544 0 0 0-.543-.543H9.941a.326.326 0 0 0 0 .652h4.726v.567H7.311v-.567h1.121a.326.326 0 1 0 0-.652H7.2a.544.544 0 0 0-.543.543v.784a.544.544 0 0 0 .416.528v6.073h-.9a1.509 1.509 0 0 0 .269-.974 1.525 1.525 0 0 0-1.407-1.413h-.012V6.17L10.994 3l5.971 3.17v13.106h-.025a1.525 1.525 0 0 0-1.407 1.413 1.51 1.51 0 0 0 .269.974zm4.639 0H17.05a.87.87 0 0 1-.867-.93.87.87 0 0 1 .8-.806h.065a.865.865 0 0 1 .292.05.476.476 0 0 0 .579-.228.6.6 0 0 1 .51-.316.475.475 0 0 0 .383-.346.557.557 0 0 1 .606-.463.5.5 0 0 1 .5.48.474.474 0 0 1-.04.19l-.007.017a.474.474 0 0 0 .465.639l.138-.006a.861.861 0 0 1 .854.885.88.88 0 0 1-.886.837zm0 0" class="cls-1" data-name="Path 249" transform="translate(.001)"/>
    <path id="Path_250" d="M176.953 140.88a1.011 1.011 0 0 0-.68-.954v-.04a1.009 1.009 0 0 0-1.4-.928v-1.5a2.817 2.817 0 1 0-5.633 0v1.5a1.009 1.009 0 0 0-1.4.929v.038a1.01 1.01 0 0 0-.683.955.543.543 0 0 0-.272.47v.881a.544.544 0 0 0 .543.543h9.255a.544.544 0 0 0 .543-.543v-.881a.543.543 0 0 0-.271-.47zm-2.37-.359h.041a.326.326 0 0 0 .326-.475.353.353 0 0 1-.04-.165.356.356 0 0 1 .713 0 .353.353 0 0 1-.04.164.326.326 0 0 0 .324.475h.039a.357.357 0 0 1 .349.286h-2.06a.357.357 0 0 1 .348-.285zm-4.694-3.063a2.165 2.165 0 0 1 4.329 0v2.48a1.01 1.01 0 0 0-.641.868h-3.047a1.01 1.01 0 0 0-.641-.868zm-1.726 3.063h.041a.326.326 0 0 0 .326-.475.352.352 0 0 1-.04-.164.356.356 0 0 1 .713 0 .352.352 0 0 1-.04.164.326.326 0 0 0 .324.475h.039a.357.357 0 0 1 .349.286h-2.06a.357.357 0 0 1 .347-.286zm8.41 1.6h-9.038v-.663h9.038zm0 0" class="cls-1" data-name="Path 250" transform="translate(-161.064 -129.946)"/>
    <path id="Path_251" d="M288.716 197.756a.325.325 0 0 0 .454-.08l.261-.372a.326.326 0 0 0-.534-.374l-.261.372a.326.326 0 0 0 .08.454zm0 0" class="cls-1" data-name="Path 251" transform="translate(-278.516 -189.93)"/>
    <path id="Path_252" d="M305.423 204.018a.326.326 0 0 0 .454-.08l.621-.886a.326.326 0 1 0-.534-.374l-.621.886a.326.326 0 0 0 .08.454zm0 0" class="cls-1" data-name="Path 252" transform="translate(-294.64 -195.478)"/>
</svg>
