<svg xmlns="http://www.w3.org/2000/svg" width="30.893" height="39.41" viewBox="0 0 30.893 39.41">
    <defs>
        <style>
            .cls-1{fill:#fff}
        </style>
    </defs>
    <g id="fork" transform="translate(-55.33)">
        <g id="Group_383" data-name="Group 383" transform="translate(57.411 22.527)">
            <path id="Path_265" d="M86.219 294.378v13.241a1.924 1.924 0 1 1-3.849 0v-13.241a.948.948 0 0 1 .948-.948l.976-.77.976.77a.949.949 0 0 1 .949.948z" class="cls-1" data-name="Path 265" transform="translate(-82.37 -292.66)"/>
            <path id="Path_266" d="M100.064 303.608v13.241a1.925 1.925 0 0 1-2.694 1.764 1.925 1.925 0 0 0 1.155-1.764v-13.241a.949.949 0 0 0-.948-.948h1.539a.949.949 0 0 1 .948.948z" class="cls-1" data-name="Path 266" transform="translate(-96.215 -301.89)"/>
        </g>
        <g id="Group_384" data-name="Group 384" transform="translate(70.112 22.527)">
            <path id="Path_267" d="M251.219 294.378v13.241a1.924 1.924 0 1 1-3.849 0v-13.241a.948.948 0 0 1 .948-.948l.976-.77.976.77a.949.949 0 0 1 .949.948z" class="cls-1" data-name="Path 267" transform="translate(-247.37 -292.66)"/>
            <path id="Path_268" d="M265.064 303.608v13.241a1.925 1.925 0 0 1-2.694 1.764 1.925 1.925 0 0 0 1.155-1.764v-13.241a.949.949 0 0 0-.948-.948h1.539a.949.949 0 0 1 .948.948z" class="cls-1" data-name="Path 268" transform="translate(-261.215 -301.89)"/>
        </g>
        <g id="Group_385" data-name="Group 385" transform="translate(82.374 25.606)">
            <path id="Path_269" d="M410.515 334.38v10.162a1.924 1.924 0 1 1-3.849 0V334.38a.948.948 0 0 1 .948-.948l.976-.77.976.77a.949.949 0 0 1 .949.948z" class="cls-1" data-name="Path 269" transform="translate(-406.666 -332.662)"/>
            <path id="Path_270" d="M424.36 343.61v10.162a1.925 1.925 0 0 1-2.694 1.764 1.925 1.925 0 0 0 1.155-1.764V343.61a.949.949 0 0 0-.948-.948h1.539a.949.949 0 0 1 .948.948z" class="cls-1" data-name="Path 270" transform="translate(-420.511 -341.892)"/>
        </g>
        <path id="Path_271" d="M63.341.577v11.9a2.861 2.861 0 0 1-1.435 2.48l-1.245.715v4.694a1.917 1.917 0 0 1 .6 1.4v.591a.948.948 0 0 1-.948.948H58.36a.948.948 0 0 1-.948-.948v-.591a1.919 1.919 0 0 1 .6-1.4v-4.698l-1.247-.716a2.858 2.858 0 0 1-1.437-2.48V.577a.577.577 0 1 1 1.155 0v8.669h1.09V.577a.577.577 0 1 1 1.155 0v8.669h1.185a.037.037 0 0 1 0-.009V.577a.577.577 0 1 1 1.155 0v8.669h1.119V.577a.577.577 0 0 1 1.155 0z" class="cls-1" data-name="Path 271"/>
        <path id="Path_272" d="M88.3 138.4v1.82a2.861 2.861 0 0 1-1.435 2.48l-1.245.715v4.694a1.917 1.917 0 0 1 .6 1.4v.591a.948.948 0 0 1-.948.948h-1.954a.948.948 0 0 1-.948-.948v-.36h2.309a.231.231 0 0 0 .231-.231.608.608 0 0 0-.192-.446 1.309 1.309 0 0 1-.407-.949v-4.694a1.307 1.307 0 0 1 .657-1.135l1.245-.716A3.924 3.924 0 0 0 88.3 138.4z" class="cls-1" data-name="Path 272" transform="translate(-24.959 -127.747)"/>
        <path id="Path_273" d="M210.929 14.983v5.379a1.917 1.917 0 0 1 .6 1.4v.591a.948.948 0 0 1-.948.948h-1.952a.948.948 0 0 1-.948-.948v-.591a1.919 1.919 0 0 1 .6-1.4v-5.378c-2.251-.5-3.913-2.365-3.913-5.882 0-4.177 2.343-9.1 5.234-9.1 2.1 0 3.914 2.6 4.747 5.63a13.27 13.27 0 0 1 .487 3.472c.002 3.513-1.658 5.377-3.907 5.879z" class="cls-1" data-name="Path 273" transform="translate(-137.568)"/>
        <path id="Path_274" d="M394.615 24.838v.591a.948.948 0 0 1-.948.948h-1.952a.948.948 0 0 1-.948-.948v-.591a1.919 1.919 0 0 1 .6-1.4v-2.855h-1.532a.4.4 0 0 1-.4-.4V5.316a5.482 5.482 0 0 1 4.073-5.3.4.4 0 0 1 .5.382v23.044a1.92 1.92 0 0 1 .607 1.396z" class="cls-1" data-name="Path 274" transform="translate(-308.392 -.002)"/>
        <g id="Group_386" data-name="Group 386" transform="translate(70.112)">
            <path id="Path_275" d="M250.619 82.493v5.379a1.917 1.917 0 0 1 .6 1.4v.591a.948.948 0 0 1-.948.948h-1.952a.948.948 0 0 1-.948-.948V89.5h2.309a.231.231 0 0 0 .231-.231.6.6 0 0 0-.069-.284.619.619 0 0 0-.123-.162 1.309 1.309 0 0 1-.407-.949v-5.31a1.308 1.308 0 0 1 .657-1.135l1.245-.716c.466-.267 2.7-1.286 2.829-7.572a13.271 13.271 0 0 1 .487 3.472c-.001 3.514-1.662 5.378-3.911 5.88z" class="cls-1" data-name="Path 275" transform="translate(-247.37 -67.51)"/>
            <path id="Path_276" d="M410.519 24.838v.591a.948.948 0 0 1-.948.948h-1.952a.948.948 0 0 1-.948-.948v-.36h2.309a.231.231 0 0 0 .231-.231.6.6 0 0 0-.069-.284.618.618 0 0 0-.123-.162 1.309 1.309 0 0 1-.407-.949V.3a5.456 5.456 0 0 1 .806-.283.4.4 0 0 1 .5.382v23.043a1.92 1.92 0 0 1 .6 1.4z" class="cls-1" data-name="Path 276" transform="translate(-394.408 -.002)"/>
        </g>
    </g>
</svg>
