<svg xmlns="http://www.w3.org/2000/svg" width="18.668" height="25.152" viewBox="0 0 18.668 25.152">
    <defs>
        <style>
            .cls-1{fill:#707070}
        </style>
    </defs>
    <g id="home" transform="translate(-66)">
        <circle id="Ellipse_24" cx=".5" cy=".5" r=".5" class="cls-1" data-name="Ellipse 24" transform="translate(75 9.186)"/>
        <path id="Path_253" d="M142.965 105.826h7.369a.491.491 0 0 0 .491-.491v-4.616l.663.568a.491.491 0 0 0 .639-.746l-5.158-4.421a.491.491 0 0 0-.639 0l-5.158 4.421a.491.491 0 0 0 .639.746l.663-.568v4.616a.491.491 0 0 0 .491.491zm.491-5.95l3.193-2.737 3.193 2.737v4.967h-2.7v-1.965a.491.491 0 1 0-.982 0v1.965h-2.7z" class="cls-1" data-name="Path 253" transform="translate(-71.315 -91.284)"/>
        <path id="Path_254" d="M74.981 25a.491.491 0 0 0 .706 0c3.135-3.236 8.981-10.517 8.981-15.374a9.715 9.715 0 0 0-1.348-4.912.491.491 0 0 0-.847.5 8.732 8.732 0 0 1 1.213 4.417c0 4.97-6.72 12.548-8.351 14.314-1.635-1.769-8.352-9.345-8.352-14.316A8.616 8.616 0 0 1 75.334.983a7.99 7.99 0 0 1 4.255 1.242.491.491 0 1 0 .523-.832A8.971 8.971 0 0 0 75.334 0 9.591 9.591 0 0 0 66 9.629c0 4.852 5.836 12.127 8.981 15.371z" class="cls-1" data-name="Path 254"/>
        <circle id="Ellipse_25" cx=".5" cy=".5" r=".5" class="cls-1" data-name="Ellipse 25" transform="translate(81 3.186)"/>
    </g>
</svg>
