<svg xmlns="http://www.w3.org/2000/svg" width="26.859" height="25.334" viewBox="0 0 26.859 25.334">
    <defs>
        <style>
            .prefix__cls-1{}
        </style>
    </defs>
    <g id="prefix__location" transform="translate(-.44 -19.992)">
        <path id="prefix__Path_288" d="M185.289 78.586a1.3 1.3 0 1 1 1.3-1.3 1.3 1.3 0 0 1-1.3 1.3z" class="prefix__cls-1" data-name="Path 288" transform="translate(-174.055 -52.976)"/>
        <path id="prefix__Path_289" d="M27.276 42.46l-2.107-13.883c-.184-1.226-1.26-1.7-2.5-1.7L15 26.894a5.3 5.3 0 0 0 0-4.666 4.253 4.253 0 0 0-3.622-2.234h-.276a4.253 4.253 0 0 0-3.621 2.234 5.3 5.3 0 0 0-.087 4.666l-2.4-.013c-1.24 0-2.231.47-2.414 1.7L.467 42.461a2.483 2.483 0 0 0 .575 1.99c.473.549.719.876 1.443.876h22.684a1.487 1.487 0 0 0 1.455-.607 3.167 3.167 0 0 0 .652-2.26zM8.988 23.063a2.508 2.508 0 0 1 2.158-1.341h.175a2.508 2.508 0 0 1 2.159 1.341 2.722 2.722 0 0 1-.035 2.722l-2.211 3.723-2.21-3.722a2.722 2.722 0 0 1-.036-2.723zM25.742 43.5a.748.748 0 0 1-.573.263H9.512a1.748 1.748 0 0 1 .937-1.4.864.864 0 1 0-.832-1.515 3.417 3.417 0 0 0-1.745 2.28 3.783 3.783 0 0 0-.089.638h-5.3a.756.756 0 0 1-.748-.868l2.108-14.052a.751.751 0 0 1 .748-.644h3.858l1.677 2.823a1.286 1.286 0 0 0 2.216 0L14.02 28.2h9.043a.751.751 0 0 1 .748.644l2.106 14.046a.748.748 0 0 1-.175.61z" class="prefix__cls-1" data-name="Path 289"/>
        <path id="prefix__Path_290" d="M257.127 220.032a.864.864 0 1 0-.547 1.64 2.071 2.071 0 0 1 1.182 1.182.864.864 0 0 0 1.64-.547 3.839 3.839 0 0 0-2.275-2.275z" class="prefix__cls-1" data-name="Path 290" transform="translate(-242.162 -189.193)"/>
        <path id="prefix__Path_291" d="M222.571 320.72a.864.864 0 0 0-1.1.527 3.855 3.855 0 0 1-2.195 1.988.864.864 0 0 0 .55 1.639 5.562 5.562 0 0 0 3.275-3.051.864.864 0 0 0-.53-1.103z" class="prefix__cls-1" data-name="Path 291" transform="translate(-206.874 -284.438)"/>
    </g>
</svg>
