<svg xmlns="http://www.w3.org/2000/svg" width="17.298" height="25.156" viewBox="0 0 17.298 25.156">
    <g id="prefix__pin" transform="translate(-79.968)">
        <path id="prefix__Path_292" d="M96.064 4.307A8.537 8.537 0 0 0 88.81 0h-.387a8.537 8.537 0 0 0-7.254 4.306 8.758 8.758 0 0 0-.114 8.653l6.238 11.418.009.015a1.516 1.516 0 0 0 2.63 0l.009-.015 6.238-11.418a8.758 8.758 0 0 0-.114-8.653zM88.616 11.4a3.538 3.538 0 1 1 3.537-3.538 3.542 3.542 0 0 1-3.537 3.538z" data-name="Path 292"/>
    </g>
</svg>
