<svg xmlns="http://www.w3.org/2000/svg" id="sale" width="15" height="15" viewBox="0 0 15 15">
    <path id="Path_474" d="M14.11 7.143a.534.534 0 0 1-.32-.423.539.539 0 0 1 .19-.5 1.473 1.473 0 0 0 .395-1.763 1.458 1.458 0 0 0-1.579-.84.522.522 0 0 1-.489-.177.541.541 0 0 1-.109-.528 1.471 1.471 0 0 0-.617-1.7 1.453 1.453 0 0 0-1.78.154.521.521 0 0 1-.507.118.531.531 0 0 1-.37-.381 1.472 1.472 0 0 0-2.847 0 .531.531 0 0 1-.37.381.521.521 0 0 1-.507-.118 1.453 1.453 0 0 0-1.78-.154 1.471 1.471 0 0 0-.617 1.7.541.541 0 0 1-.109.528.522.522 0 0 1-.489.177 1.458 1.458 0 0 0-1.579.84A1.473 1.473 0 0 0 1.02 6.22a.55.55 0 0 1-.13.923 1.485 1.485 0 0 0 .41 2.833.528.528 0 0 1 .422.311.542.542 0 0 1-.042.537 1.473 1.473 0 0 0 .117 1.806 1.454 1.454 0 0 0 1.75.356.52.52 0 0 1 .518.03.537.537 0 0 1 .251.474 1.466 1.466 0 0 0 1.064 1.456 1.5 1.5 0 0 0 .419.06 1.456 1.456 0 0 0 1.244-.706.532.532 0 0 1 .914 0 1.473 1.473 0 0 0 2.732-.805.537.537 0 0 1 .251-.474.52.52 0 0 1 .518-.03 1.454 1.454 0 0 0 1.75-.356 1.473 1.473 0 0 0 .117-1.806.542.542 0 0 1-.042-.537.528.528 0 0 1 .422-.311 1.485 1.485 0 0 0 .406-2.834zM6.094 4.226a.937.937 0 1 1-.937.937.939.939 0 0 1 .937-.937zm2.812 6.562a.937.937 0 1 1 .937-.937.939.939 0 0 1-.937.937zm1.269-5.293l-4.687 4.687a.469.469 0 0 1-.663-.663l4.688-4.687a.469.469 0 1 1 .663.663z" data-name="Path 474" transform="translate(0 -.007)"/>
</svg>
