<svg xmlns="http://www.w3.org/2000/svg" width="24.521" height="27.51" viewBox="0 0 24.521 27.51">
    <g id="surface1" transform="translate(-.184)">
        <path id="Path_489" fill="#707070" d="M24.353 13.052l-1.095-.471v-.749a10.778 10.778 0 0 0-7.221-10.21V.567A.567.567 0 0 0 15.47 0H9.4a.567.567 0 0 0-.567.567v1.061a10.778 10.778 0 0 0-7.221 10.21v.754l-1.082.46a.567.567 0 0 0-.346.522v2.978a.567.567 0 0 0 .567.567h.737v1.135a.567.567 0 0 0 .567.567h2.037a8.581 8.581 0 0 0 .845 2.031L3.5 22.292a.567.567 0 0 0 0 .8L5.907 25.5a.567.567 0 0 0 .8 0l1.441-1.441a8.569 8.569 0 0 0 2.025.845v2.036a.567.567 0 0 0 .567.567h3.4a.567.567 0 0 0 .567-.567v-2.033a8.561 8.561 0 0 0 2.031-.845l1.444 1.438a.567.567 0 0 0 .8 0l2.411-2.411a.567.567 0 0 0 0-.8l-1.441-1.441a8.58 8.58 0 0 0 .848-2.028h2.036a.567.567 0 0 0 .567-.567v-1.134h.737a.567.567 0 0 0 .567-.567v-2.978a.567.567 0 0 0-.354-.522zM9.957 1.14H14.9v9.478H9.968zm12.314 16.546h-1.889a.567.567 0 0 0-.567.448 7.456 7.456 0 0 1-1.038 2.5.567.567 0 0 0 .074.709l1.356 1.356-1.622 1.611-1.356-1.36a.567.567 0 0 0-.709-.074 7.46 7.46 0 0 1-2.5 1.038.567.567 0 0 0-.448.567v1.911h-2.265v-1.928a.567.567 0 0 0-.448-.567 7.435 7.435 0 0 1-2.5-1.038.567.567 0 0 0-.709.074L6.3 24.289l-1.607-1.606 1.356-1.356a.567.567 0 0 0 .074-.709 7.463 7.463 0 0 1-1.055-2.484.567.567 0 0 0-.567-.448h-1.89v-.567H7.8a4.674 4.674 0 0 0 9.28 0h5.19zm-13.318-.567h6.983a3.539 3.539 0 0 1-6.988 0zm14.623-1.134H1.312v-2.037l1.095-.471a.566.566 0 0 0 .346-.522v-1.134A9.642 9.642 0 0 1 8.834 2.83v8.355a.567.567 0 0 0 .567.567h6.081a.567.567 0 0 0 .567-.567V2.83a9.643 9.643 0 0 1 6.086 9v1.135a.566.566 0 0 0 .346.522l1.095.471v2.025zm0 0" data-name="Path 489"/>
    </g>
</svg>
