<svg xmlns="http://www.w3.org/2000/svg" id="share" width="20.445" height="22.304" viewBox="0 0 20.445 22.304">
    <defs>
        <style>
            .cls-1{fill:#707070}
        </style>
    </defs>
    <path id="Path_230" d="M312.817 6.97a3.485 3.485 0 1 1 3.483-3.485 3.489 3.489 0 0 1-3.483 3.485zm0-5.576a2.091 2.091 0 1 0 2.091 2.091 2.093 2.093 0 0 0-2.091-2.091zm0 0" class="cls-1" data-name="Path 230" transform="translate(-295.857)"/>
    <path id="Path_231" d="M312.817 358.97a3.485 3.485 0 1 1 3.485-3.485 3.489 3.489 0 0 1-3.485 3.485zm0-5.576a2.091 2.091 0 1 0 2.091 2.091 2.093 2.093 0 0 0-2.091-2.091zm0 0" class="cls-1" data-name="Path 231" transform="translate(-295.857 -336.666)"/>
    <path id="Path_232" d="M3.485 182.97a3.485 3.485 0 1 1 3.485-3.485 3.489 3.489 0 0 1-3.485 3.485zm0-5.576a2.091 2.091 0 1 0 2.091 2.091 2.093 2.093 0 0 0-2.091-2.091zm0 0" class="cls-1" data-name="Path 232" transform="translate(0 -168.333)"/>
    <path id="Path_233" d="M120.387 101.87a.7.7 0 0 1-.346-1.3l8.623-4.916a.7.7 0 0 1 .689 1.211l-8.623 4.916a.7.7 0 0 1-.344.091zm0 0" class="cls-1" data-name="Path 233" transform="translate(-114.475 -91.396)"/>
    <path id="Path_234" d="M129.03 277.859a.691.691 0 0 1-.344-.092l-8.623-4.916a.7.7 0 0 1 .69-1.211l8.623 4.916a.7.7 0 0 1-.346 1.3zm0 0" class="cls-1" data-name="Path 234" transform="translate(-114.496 -259.719)"/>
</svg>
