<svg xmlns="http://www.w3.org/2000/svg" width="26.74" height="23.532" viewBox="0 0 26.74 23.532">
    <path id="prefix__users-cog" stroke-width="1.2px" d="M38.532 47.517a5.849 5.849 0 0 0 0-2.124l1.286-.743a.361.361 0 0 0 .165-.424 7.483 7.483 0 0 0-1.655-2.862.364.364 0 0 0-.449-.07l-1.286.743a5.854 5.854 0 0 0-1.84-1.062v-1.486a.363.363 0 0 0-.284-.354 7.523 7.523 0 0 0-3.3 0 .363.363 0 0 0-.284.354v1.486a5.854 5.854 0 0 0-1.84 1.062l-1.286-.743a.365.365 0 0 0-.449.07 7.482 7.482 0 0 0-1.655 2.862.367.367 0 0 0 .165.424l1.286.743a5.849 5.849 0 0 0 0 2.124l-1.286.743a.361.361 0 0 0-.165.424 7.52 7.52 0 0 0 1.655 2.862.364.364 0 0 0 .449.07l1.286-.743a5.854 5.854 0 0 0 1.84 1.062v1.485a.363.363 0 0 0 .284.354 7.523 7.523 0 0 0 3.3 0 .363.363 0 0 0 .284-.354v-1.486a5.854 5.854 0 0 0 1.84-1.062l1.286.743a.365.365 0 0 0 .449-.07 7.483 7.483 0 0 0 1.655-2.862.367.367 0 0 0-.165-.424zm-5.709 1.356a2.418 2.418 0 1 1 2.418-2.418 2.421 2.421 0 0 1-2.418 2.418zm-8.775-5.609c.095 0 .184-.025.279-.03a9.192 9.192 0 0 1 1.81-2.952 1.965 1.965 0 0 1 1.441-.628 1.917 1.917 0 0 1 .977.264l.394.229c.04-.025.08-.045.12-.07a5.519 5.519 0 0 0 .558-2.393 5.582 5.582 0 1 0-5.579 5.579zm5.245 9.7c-.115-.06-.229-.13-.339-.194a2.463 2.463 0 0 1-1.371.489 1.982 1.982 0 0 1-1.441-.628 9.092 9.092 0 0 1-2-3.47 2.128 2.128 0 0 1 1.286-2.508q-.007-.194 0-.389l-.394-.229a2.031 2.031 0 0 1-.489-.4c-.165.01-.324.03-.489.03a7.871 7.871 0 0 1-3.415-.8h-.414a5.746 5.746 0 0 0-5.752 5.735v1.436a2.394 2.394 0 0 0 2.393 2.393H29.6a1.92 1.92 0 0 1-.309-1.012z" transform="translate(-13.875 -31.5)"/>
</svg>
